simulation
nRows=74
nColumns=15
endheader
time  TH_x TH_y TH_z SC_y  SC_z  SC_x  AC_y  AC_z  AC_x  GH_y  GH_z  GH_yy  EL_x  PS_y
2.330000  0.000000  0.000000  0.000000  -33.047310  0.610728  1.201795  55.487599  21.181239  -0.813832  24.805020  40.183454  -23.012102  18.662869  0.000000
2.340000  0.000000  0.000000  0.000000  -33.027733  0.539892  1.026938  55.498481  21.017699  -0.842195  24.884450  39.737150  -22.981878  18.690017  0.000000
2.350000  0.000000  0.000000  0.000000  -33.007468  0.468838  0.852604  55.509091  20.851316  -0.871555  24.964437  39.285701  -22.950071  18.717667  0.000000
2.360000  0.000000  0.000000  0.000000  -32.986511  0.397601  0.678882  55.519413  20.682151  -0.901903  25.044965  38.829210  -22.916678  18.745814  0.000000
2.370000  0.000000  0.000000  0.000000  -32.964859  0.326217  0.505859  55.529432  20.510266  -0.933227  25.126017  38.367788  -22.881697  18.774454  0.000000
2.380000  0.000000  0.000000  0.000000  -32.942507  0.254720  0.333623  55.539134  20.335723  -0.965518  25.207578  37.901543  -22.845126  18.803582  0.000000
2.390000  0.000000  0.000000  0.000000  -32.919453  0.183147  0.162264  55.548502  20.158588  -0.998764  25.289632  37.430587  -22.806964  18.833194  0.000000
2.400000  0.000000  0.000000  0.000000  -32.895692  0.111535  -0.008126  55.557521  19.978926  -1.032955  25.372162  36.955033  -22.767208  18.863285  0.000000
2.410000  0.000000  0.000000  0.000000  -32.871221  0.039921  -0.177457  55.566175  19.796803  -1.068078  25.455152  36.474995  -22.725859  18.893850  0.000000
2.420000  0.000000  0.000000  0.000000  -32.846035  -0.031658  -0.345634  55.574449  19.612289  -1.104121  25.538586  35.990590  -22.682913  18.924885  0.000000
2.430000  0.000000  0.000000  0.000000  -32.820132  -0.103163  -0.512564  55.582325  19.425452  -1.141074  25.622447  35.501938  -22.638372  18.956383  0.000000
2.440000  0.000000  0.000000  0.000000  -32.793508  -0.174555  -0.678152  55.589788  19.236364  -1.178922  25.706720  35.009156  -22.592234  18.988340  0.000000
2.450000  0.000000  0.000000  0.000000  -32.766160  -0.245795  -0.842300  55.596821  19.045095  -1.217654  25.791386  34.512369  -22.544498  19.020752  0.000000
2.460000  0.000000  0.000000  0.000000  -32.738082  -0.316844  -1.004913  55.603407  18.851719  -1.257257  25.876431  34.011698  -22.495164  19.053612  0.000000
2.470000  0.000000  0.000000  0.000000  -32.709274  -0.387661  -1.165891  55.609528  18.656311  -1.297717  25.961838  33.507269  -22.444232  19.086914  0.000000
2.480000  0.000000  0.000000  0.000000  -32.679730  -0.458206  -1.325135  55.615169  18.458945  -1.339021  26.047589  32.999210  -22.391702  19.120655  0.000000
2.490000  0.000000  0.000000  0.000000  -32.649447  -0.528437  -1.482545  55.620310  18.259699  -1.381155  26.133668  32.487649  -22.337574  19.154827  0.000000
2.500000  0.000000  0.000000  0.000000  -32.618423  -0.598312  -1.638018  55.624935  18.058651  -1.424106  26.220058  31.972716  -22.281849  19.189425  0.000000
2.510000  0.000000  0.000000  0.000000  -32.586654  -0.667790  -1.791451  55.629026  17.855879  -1.467858  26.306743  31.454544  -22.224528  19.224443  0.000000
2.520000  0.000000  0.000000  0.000000  -32.554136  -0.736827  -1.942742  55.632564  17.651465  -1.512398  26.393705  30.933267  -22.165610  19.259875  0.000000
2.530000  0.000000  0.000000  0.000000  -32.520866  -0.805380  -2.091784  55.635532  17.445490  -1.557710  26.480928  30.409020  -22.105098  19.295716  0.000000
2.540000  0.000000  0.000000  0.000000  -32.486841  -0.873405  -2.238473  55.637910  17.238038  -1.603779  26.568394  29.881941  -22.042993  19.331958  0.000000
2.550000  0.000000  0.000000  0.000000  -32.452058  -0.940859  -2.382700  55.639680  17.029191  -1.650590  26.656086  29.352169  -21.979295  19.368597  0.000000
2.560000  0.000000  0.000000  0.000000  -32.416514  -1.007696  -2.524358  55.640824  16.819036  -1.698127  26.743988  28.819845  -21.914007  19.405624  0.000000
2.570000  0.000000  0.000000  0.000000  -32.380205  -1.073871  -2.663337  55.641321  16.607660  -1.746375  26.832081  28.285112  -21.847130  19.443034  0.000000
2.580000  0.000000  0.000000  0.000000  -32.343129  -1.139338  -2.799528  55.641154  16.395150  -1.795316  26.920350  27.748114  -21.778666  19.480821  0.000000
2.590000  0.000000  0.000000  0.000000  -32.305282  -1.204050  -2.932817  55.640302  16.181595  -1.844935  27.008775  27.208997  -21.708618  19.518977  0.000000
2.600000  0.000000  0.000000  0.000000  -32.266662  -1.267962  -3.063094  55.638745  15.967086  -1.895214  27.097341  26.667909  -21.636987  19.557496  0.000000
2.610000  0.000000  0.000000  0.000000  -32.227265  -1.331025  -3.190244  55.636464  15.751715  -1.946137  27.186029  26.125000  -21.563777  19.596371  0.000000
2.620000  0.000000  0.000000  0.000000  -32.187088  -1.393192  -3.314152  55.633439  15.535574  -1.997686  27.274822  25.580422  -21.488991  19.635595  0.000000
2.630000  0.000000  0.000000  0.000000  -32.146129  -1.454415  -3.434704  55.629649  15.318757  -2.049844  27.363703  25.034326  -21.412630  19.675161  0.000000
2.640000  0.000000  0.000000  0.000000  -32.104385  -1.514644  -3.551782  55.625073  15.101360  -2.102592  27.452653  24.486868  -21.334699  19.715061  0.000000
2.650000  0.000000  0.000000  0.000000  -32.061852  -1.573830  -3.665267  55.619692  14.883479  -2.155913  27.541655  23.938205  -21.255201  19.755289  0.000000
2.660000  0.000000  0.000000  0.000000  -32.018529  -1.631924  -3.775042  55.613483  14.665211  -2.209787  27.630691  23.388495  -21.174139  19.795836  0.000000
2.670000  0.000000  0.000000  0.000000  -31.974411  -1.688874  -3.880985  55.606427  14.446657  -2.264197  27.719744  22.837898  -21.091517  19.836696  0.000000
2.680000  0.000000  0.000000  0.000000  -31.929497  -1.744631  -3.982977  55.598501  14.227916  -2.319123  27.808795  22.286576  -21.007339  19.877861  0.000000
2.690000  0.000000  0.000000  0.000000  -31.883785  -1.799142  -4.080893  55.589684  14.009090  -2.374546  27.897827  21.734693  -20.921609  19.919323  0.000000
2.700000  0.000000  0.000000  0.000000  -31.837270  -1.852356  -4.174612  55.579955  13.790281  -2.430446  27.986822  21.182413  -20.834331  19.961074  0.000000
2.710000  0.000000  0.000000  0.000000  -31.789950  -1.904220  -4.264008  55.569290  13.571593  -2.486804  28.075760  20.629903  -20.745511  20.003106  0.000000
2.720000  0.000000  0.000000  0.000000  -31.741824  -1.954682  -4.348957  55.557669  13.353132  -2.543598  28.164626  20.077334  -20.655152  20.045412  0.000000
2.730000  0.000000  0.000000  0.000000  -31.692888  -2.003688  -4.429331  55.545069  13.135003  -2.600810  28.253399  19.524874  -20.563260  20.087983  0.000000
2.740000  0.000000  0.000000  0.000000  -31.643140  -2.051184  -4.505003  55.531467  12.917316  -2.658418  28.342062  18.972696  -20.469839  20.130811  0.000000
2.750000  0.000000  0.000000  0.000000  -31.592577  -2.097116  -4.575844  55.516840  12.700178  -2.716402  28.430597  18.420974  -20.374895  20.173888  0.000000
2.760000  0.000000  0.000000  0.000000  -31.541197  -2.141428  -4.641723  55.501166  12.483699  -2.774739  28.518985  17.869885  -20.278434  20.217205  0.000000
2.770000  0.000000  0.000000  0.000000  -31.488997  -2.184065  -4.702512  55.484422  12.267991  -2.833409  28.607207  17.319604  -20.180461  20.260753  0.000000
2.780000  0.000000  0.000000  0.000000  -31.435976  -2.224972  -4.758076  55.466583  12.053167  -2.892390  28.695246  16.770313  -20.080983  20.304525  0.000000
2.790000  0.000000  0.000000  0.000000  -31.382130  -2.264092  -4.808283  55.447626  11.839341  -2.951659  28.783083  16.222191  -19.980004  20.348510  0.000000
2.800000  0.000000  0.000000  0.000000  -31.327458  -2.301367  -4.853000  55.427529  11.626626  -3.011195  28.870698  15.675420  -19.877532  20.392702  0.000000
2.810000  0.000000  0.000000  0.000000  -31.271956  -2.336741  -4.892090  55.406265  11.415141  -3.070974  28.958074  15.130187  -19.773572  20.437090  0.000000
2.820000  0.000000  0.000000  0.000000  -31.215624  -2.370156  -4.925417  55.383813  11.205002  -3.130975  29.045191  14.586676  -19.668132  20.481665  0.000000
2.830000  0.000000  0.000000  0.000000  -31.158458  -2.401552  -4.952844  55.360146  10.996327  -3.191173  29.132031  14.045076  -19.561219  20.526419  0.000000
2.840000  0.000000  0.000000  0.000000  -31.100456  -2.430871  -4.974232  55.335240  10.789238  -3.251545  29.218575  13.505576  -19.452839  20.571341  0.000000
2.850000  0.000000  0.000000  0.000000  -31.041617  -2.458053  -4.989442  55.309072  10.583855  -3.312067  29.304804  12.968368  -19.343000  20.616424  0.000000
2.860000  0.000000  0.000000  0.000000  -30.981938  -2.483039  -4.998333  55.281614  10.380301  -3.372716  29.390699  12.433644  -19.231709  20.661656  0.000000
2.870000  0.000000  0.000000  0.000000  -30.921417  -2.505768  -5.000763  55.252844  10.178700  -3.433467  29.476241  11.901601  -19.118973  20.707029  0.000000
2.880000  0.000000  0.000000  0.000000  -30.860053  -2.526179  -4.996589  55.222734  9.979175  -3.494296  29.561410  11.372433  -19.004801  20.752534  0.000000
2.890000  0.000000  0.000000  0.000000  -30.797842  -2.544210  -4.985668  55.191259  9.781855  -3.555178  29.646188  10.846340  -18.889201  20.798159  0.000000
2.900000  0.000000  0.000000  0.000000  -30.734783  -2.559799  -4.967854  55.158394  9.586865  -3.616087  29.730556  10.323521  -18.772181  20.843896  0.000000
2.910000  0.000000  0.000000  0.000000  -30.670875  -2.572884  -4.943002  55.124112  9.394335  -3.676998  29.814493  9.804179  -18.653749  20.889734  0.000000
2.920000  0.000000  0.000000  0.000000  -30.606114  -2.583401  -4.910963  55.088388  9.204394  -3.737886  29.897981  9.288517  -18.533913  20.935664  0.000000
2.930000  0.000000  0.000000  0.000000  -30.540500  -2.591288  -4.871591  55.051194  9.017174  -3.798725  29.981000  8.776740  -18.412684  20.981675  0.000000
2.940000  0.000000  0.000000  0.000000  -30.474031  -2.596480  -4.824735  55.012505  8.832807  -3.859488  30.063531  8.269055  -18.290069  21.027756  0.000000
2.950000  0.000000  0.000000  0.000000  -30.406704  -2.598912  -4.770245  54.972293  8.651426  -3.920149  30.145554  7.765671  -18.166077  21.073898  0.000000
2.960000  0.000000  0.000000  0.000000  -30.338519  -2.598520  -4.707969  54.930531  8.473167  -3.980681  30.227050  7.266799  -18.040719  21.120090  0.000000
2.970000  0.000000  0.000000  0.000000  -30.269472  -2.595237  -4.637756  54.887192  8.298165  -4.041057  30.307999  6.772651  -17.914004  21.166321  0.000000
2.980000  0.000000  0.000000  0.000000  -30.199564  -2.588998  -4.559450  54.842249  8.126558  -4.101250  30.388381  6.283441  -17.785941  21.212582  0.000000
2.990000  0.000000  0.000000  0.000000  -30.128791  -2.579736  -4.472898  54.795674  7.958484  -4.161233  30.468176  5.799384  -17.656541  21.258859  0.000000
3.000000  0.000000  0.000000  0.000000  -30.057152  -2.567384  -4.377944  54.747439  7.794084  -4.220976  30.547365  5.320697  -17.525813  21.305144  0.000000
3.010000  0.000000  0.000000  0.000000  -29.984646  -2.551875  -4.274430  54.697515  7.633497  -4.280453  30.625927  4.847602  -17.393768  21.351425  0.000000
3.020000  0.000000  0.000000  0.000000  -29.911271  -2.533140  -4.162199  54.645876  7.476866  -4.339634  30.703843  4.380317  -17.260417  21.397691  0.000000
3.030000  0.000000  0.000000  0.000000  -29.837026  -2.511110  -4.041092  54.592491  7.324335  -4.398491  30.781093  3.919066  -17.125770  21.443930  0.000000
3.040000  0.000000  0.000000  0.000000  -29.761909  -2.485717  -3.910948  54.537333  7.176048  -4.456996  30.857656  3.464073  -16.989838  21.490132  0.000000
3.050000  0.000000  0.000000  0.000000  -29.685919  -2.456891  -3.771605  54.480373  7.032152  -4.515118  30.933512  3.015565  -16.852633  21.536285  0.000000
3.060000  0.000000  0.000000  0.000000  -29.609054  -2.424561  -3.622903  54.421582  6.892792  -4.572828  31.008642  2.573769  -16.714165  21.582377  0.000000
